# xmcd
#
# Track frame offsets: 
#        150
#        16487
#        37643
#        59752
#        79835
#        100795
#        116355
#        143889
#        164820
#        195404
#
# Disc length: 3280 seconds
#
# Revision: 0
# Processed by: cddbd v1.5.2PL0 Copyright (c) Steve Scherf et al.
# Submitted via: ExactAudioCopy v1.0b1
#
DISCID=7f0cce0a
DTITLE=Ashford and Simpson - Send It
DYEAR=1977
DGENRE=Soul
TTITLE0=By Way Of Love's Express
TTITLE1=Let Love Use Me
TTITLE2=Don't Cost You Nothing
TTITLE3=Send It
TTITLE4=Top Of The Stairs
TTITLE5=Too Bad
TTITLE6=Bourgie Bourgie (Instrumental)
TTITLE7=I Waited Too Long
TTITLE8=Don't Cost You Nothng (12'' Disco Mix)
TTITLE9=Bourgie Bourgie (Joe Claussell's Classic Remix)
EXTD=
EXTT0=
EXTT1=
EXTT2=
EXTT3=
EXTT4=
EXTT5=
EXTT6=
EXTT7=
EXTT8=
EXTT9=
PLAYORDER=
